HIERARCHY
ROOT Root
{
  OFFSET 0.0 0.0 0.0
  CHANNELS 6 Xposition Yposition Zposition Zrotation Yrotation Xrotation
  JOINT Hips
  {
    OFFSET 0.0 100.0 0.0
    CHANNELS 6 Xposition Yposition Zposition Zrotation Yrotation Xrotation
    JOINT Spine1
    {
      OFFSET -0.013727 5.003763 -0.053727
      CHANNELS 3 Zrotation Yrotation Xrotation
      JOINT Spine2
      {
        OFFSET -0.0 7.125301 -0.029825
        CHANNELS 3 Zrotation Yrotation Xrotation
        JOINT Chest
        {
          OFFSET -1e-06 7.550063 -0.815971
          CHANNELS 3 Zrotation Yrotation Xrotation
          JOINT Neck1
          {
            OFFSET -0.181677 26.311295 -0.553348
            CHANNELS 3 Zrotation Yrotation Xrotation
            JOINT Neck2
            {
              OFFSET -3e-06 7.709397 2.302585
              CHANNELS 3 Zrotation Yrotation Xrotation
              JOINT Head
              {
                OFFSET -5e-06 6.128916 1.953709
                CHANNELS 3 Zrotation Yrotation Xrotation
                JOINT HeadEnd
                {
                  OFFSET 0.003598 16.065403 -1.835379
                  CHANNELS 3 Zrotation Yrotation Xrotation
                }
                JOINT Jaw
                {
                  OFFSET 0.002637 0.475592 3.094941
                  CHANNELS 3 Zrotation Yrotation Xrotation
                }
                JOINT LeftEye
                {
                  OFFSET 3.206381 5.380205 7.586883
                  CHANNELS 3 Zrotation Yrotation Xrotation
                }
                JOINT RightEye
                {
                  OFFSET -3.22244 5.361869 7.558234
                  CHANNELS 3 Zrotation Yrotation Xrotation
                }
              }
            }
          }
          JOINT LeftShoulder
          {
            OFFSET 1.621652 23.237164 5.113413
            CHANNELS 3 Zrotation Yrotation Xrotation
            JOINT LeftArm
            {
              OFFSET 14.919846 2e-06 -5.502326
              CHANNELS 3 Zrotation Yrotation Xrotation
              JOINT LeftForeArm
              {
                OFFSET 28.739307 0.0 -0.002588
                CHANNELS 3 Zrotation Yrotation Xrotation
                JOINT LeftHand
                {
                  OFFSET 27.093981 -1e-06 0.002609
                  CHANNELS 3 Zrotation Yrotation Xrotation
                  JOINT LeftHandThumb1
                  {
                    OFFSET 2.276482 -1.392045 3.191413
                    CHANNELS 3 Zrotation Yrotation Xrotation
                    JOINT LeftHandThumb2
                    {
                      OFFSET 4.012836 -1.828127 1.641654
                      CHANNELS 3 Zrotation Yrotation Xrotation
                      JOINT LeftHandThumb3
                      {
                        OFFSET 2.798515 0.0 -3e-06
                        CHANNELS 3 Zrotation Yrotation Xrotation
                        JOINT LeftHandThumbEnd
                        {
                          OFFSET 3.180793 -4e-06 4e-06
                          CHANNELS 3 Zrotation Yrotation Xrotation
                        }
                      }
                    }
                  }
                  JOINT LeftHandIndex1
                  {
                    OFFSET 3.247555 -0.531998 2.296169
                    CHANNELS 3 Zrotation Yrotation Xrotation
                    JOINT LeftHandIndex2
                    {
                      OFFSET 6.364578 0.01206 0.1786
                      CHANNELS 3 Zrotation Yrotation Xrotation
                      JOINT LeftHandIndex3
                      {
                        OFFSET 3.662364 0.0 0.0
                        CHANNELS 3 Zrotation Yrotation Xrotation
                        JOINT LeftHandIndex4
                        {
                          OFFSET 2.329242 4e-06 4e-06
                          CHANNELS 3 Zrotation Yrotation Xrotation
                          JOINT LeftHandIndexEnd
                          {
                            OFFSET 2.759615 -0.180537 -0.113024
                            CHANNELS 3 Zrotation Yrotation Xrotation
                          }
                        }
                      }
                    }
                  }
                  JOINT LeftHandMiddle1
                  {
                    OFFSET 3.163495 0.240981 1.000332
                    CHANNELS 3 Zrotation Yrotation Xrotation
                    JOINT LeftHandMiddle2
                    {
                      OFFSET 6.19078 -0.259278 -1.002548
                      CHANNELS 3 Zrotation Yrotation Xrotation
                      JOINT LeftHandMiddle3
                      {
                        OFFSET 4.35652 -4e-06 -1e-06
                        CHANNELS 3 Zrotation Yrotation Xrotation
                        JOINT LeftHandMiddle4
                        {
                          OFFSET 2.996877 -8e-06 0.0
                          CHANNELS 3 Zrotation Yrotation Xrotation
                          JOINT LeftHandMiddleEnd
                          {
                            OFFSET 2.304287 -0.294569 -0.031741
                            CHANNELS 3 Zrotation Yrotation Xrotation
                          }
                        }
                      }
                    }
                  }
                  JOINT LeftHandRing1
                  {
                    OFFSET 2.882643 -0.053652 -0.322543
                    CHANNELS 3 Zrotation Yrotation Xrotation
                    JOINT LeftHandRing2
                    {
                      OFFSET 5.854541 -0.486202 -1.373841
                      CHANNELS 3 Zrotation Yrotation Xrotation
                      JOINT LeftHandRing3
                      {
                        OFFSET 4.350578 0.0 3e-06
                        CHANNELS 3 Zrotation Yrotation Xrotation
                        JOINT LeftHandRing4
                        {
                          OFFSET 2.651321 7e-06 2e-06
                          CHANNELS 3 Zrotation Yrotation Xrotation
                          JOINT LeftHandRingEnd
                          {
                            OFFSET 1.936105 0.077687 -7.1e-05
                            CHANNELS 3 Zrotation Yrotation Xrotation
                          }
                        }
                      }
                    }
                  }
                  JOINT LeftHandPinky1
                  {
                    OFFSET 2.8655 -0.310005 -1.600378
                    CHANNELS 3 Zrotation Yrotation Xrotation
                    JOINT LeftHandPinky2
                    {
                      OFFSET 5.087849 -1.331141 -1.77123
                      CHANNELS 3 Zrotation Yrotation Xrotation
                      JOINT LeftHandPinky3
                      {
                        OFFSET 3.070974 4e-06 0.0
                        CHANNELS 3 Zrotation Yrotation Xrotation
                        JOINT LeftHandPinky4
                        {
                          OFFSET 1.549672 0.0 1e-06
                          CHANNELS 3 Zrotation Yrotation Xrotation
                          JOINT LeftHandPinkyEnd
                          {
                            OFFSET 1.944893 -0.157802 0.057219
                            CHANNELS 3 Zrotation Yrotation Xrotation
                          }
                        }
                      }
                    }
                  }
                }
              }
            }
          }
          JOINT RightShoulder
          {
            OFFSET -1.380118 23.180309 5.214158
            CHANNELS 3 Zrotation Yrotation Xrotation
            JOINT RightArm
            {
              OFFSET -15.037196 1.2e-05 -5.545604
              CHANNELS 3 Zrotation Yrotation Xrotation
              JOINT RightForeArm
              {
                OFFSET -28.736639 2e-06 -0.002597
                CHANNELS 3 Zrotation Yrotation Xrotation
                JOINT RightHand
                {
                  OFFSET -27.133619 -0.0 0.002613
                  CHANNELS 3 Zrotation Yrotation Xrotation
                  JOINT RightHandThumb1
                  {
                    OFFSET -2.274032 -1.383988 3.163127
                    CHANNELS 3 Zrotation Yrotation Xrotation
                    JOINT RightHandThumb2
                    {
                      OFFSET -4.011429 -1.827466 1.640914
                      CHANNELS 3 Zrotation Yrotation Xrotation
                      JOINT RightHandThumb3
                      {
                        OFFSET -2.794935 -4e-06 -3e-06
                        CHANNELS 3 Zrotation Yrotation Xrotation
                        JOINT RightHandThumbEnd
                        {
                          OFFSET -3.183852 4e-06 1e-06
                          CHANNELS 3 Zrotation Yrotation Xrotation
                        }
                      }
                    }
                  }
                  JOINT RightHandIndex1
                  {
                    OFFSET -3.253266 -0.520057 2.282866
                    CHANNELS 3 Zrotation Yrotation Xrotation
                    JOINT RightHandIndex2
                    {
                      OFFSET -6.341917 0.012471 0.178266
                      CHANNELS 3 Zrotation Yrotation Xrotation
                      JOINT RightHandIndex3
                      {
                        OFFSET -3.654871 -8e-06 -0.0
                        CHANNELS 3 Zrotation Yrotation Xrotation
                        JOINT RightHandIndex4
                        {
                          OFFSET -2.327586 0.0 1e-06
                          CHANNELS 3 Zrotation Yrotation Xrotation
                          JOINT RightHandIndexEnd
                          {
                            OFFSET -2.76179 -0.180656 -0.113078
                            CHANNELS 3 Zrotation Yrotation Xrotation
                          }
                        }
                      }
                    }
                  }
                  JOINT RightHandMiddle1
                  {
                    OFFSET -3.168106 0.246593 1.00103
                    CHANNELS 3 Zrotation Yrotation Xrotation
                    JOINT RightHandMiddle2
                    {
                      OFFSET -6.180828 -0.258836 -1.000895
                      CHANNELS 3 Zrotation Yrotation Xrotation
                      JOINT RightHandMiddle3
                      {
                        OFFSET -4.348901 0.0 -0.0
                        CHANNELS 3 Zrotation Yrotation Xrotation
                        JOINT RightHandMiddle4
                        {
                          OFFSET -3.00024 -4e-06 -2e-06
                          CHANNELS 3 Zrotation Yrotation Xrotation
                          JOINT RightHandMiddleEnd
                          {
                            OFFSET -2.30252 -0.29437 -0.031706
                            CHANNELS 3 Zrotation Yrotation Xrotation
                          }
                        }
                      }
                    }
                  }
                  JOINT RightHandRing1
                  {
                    OFFSET -2.88569 -0.067952 -0.308858
                    CHANNELS 3 Zrotation Yrotation Xrotation
                    JOINT RightHandRing2
                    {
                      OFFSET -5.854198 -0.48613 -1.373731
                      CHANNELS 3 Zrotation Yrotation Xrotation
                      JOINT RightHandRing3
                      {
                        OFFSET -4.33881 -4e-06 -0.0
                        CHANNELS 3 Zrotation Yrotation Xrotation
                        JOINT RightHandRing4
                        {
                          OFFSET -2.654903 -4e-06 4e-06
                          CHANNELS 3 Zrotation Yrotation Xrotation
                          JOINT RightHandRingEnd
                          {
                            OFFSET -1.933568 0.077527 -5.2e-05
                            CHANNELS 3 Zrotation Yrotation Xrotation
                          }
                        }
                      }
                    }
                  }
                  JOINT RightHandPinky1
                  {
                    OFFSET -2.866425 -0.342796 -1.584145
                    CHANNELS 3 Zrotation Yrotation Xrotation
                    JOINT RightHandPinky2
                    {
                      OFFSET -5.091371 -1.332055 -1.772385
                      CHANNELS 3 Zrotation Yrotation Xrotation
                      JOINT RightHandPinky3
                      {
                        OFFSET -3.062664 -4e-06 1e-06
                        CHANNELS 3 Zrotation Yrotation Xrotation
                        JOINT RightHandPinky4
                        {
                          OFFSET -1.546529 4e-06 -2e-06
                          CHANNELS 3 Zrotation Yrotation Xrotation
                          JOINT RightHandPinkyEnd
                          {
                            OFFSET -1.945119 -0.157718 0.057211
                            CHANNELS 3 Zrotation Yrotation Xrotation
                          }
                        }
                      }
                    }
                  }
                }
              }
            }
          }
        }
      }
    }
    JOINT LeftLeg
    {
      OFFSET 10.043214 -8.434526 2.595655
      CHANNELS 3 Zrotation Yrotation Xrotation
      JOINT LeftShin
      {
        OFFSET -1e-06 -43.221752 -0.802913
        CHANNELS 3 Zrotation Yrotation Xrotation
        JOINT LeftFoot
        {
          OFFSET 1e-06 -42.155094 -3.481523
          CHANNELS 3 Zrotation Yrotation Xrotation
          JOINT LeftToeBase
          {
            OFFSET 0.0 -5.059472 13.231529
            CHANNELS 3 Zrotation Yrotation Xrotation
            JOINT LeftToeEnd
            {
              OFFSET -0.009607 -1.647619 6.513017
              CHANNELS 3 Zrotation Yrotation Xrotation
            }
          }
        }
      }
    }
    JOINT RightLeg
    {
      OFFSET -10.047278 -8.29526 2.620317
      CHANNELS 3 Zrotation Yrotation Xrotation
      JOINT RightShin
      {
        OFFSET 1e-06 -43.362206 -0.805556
        CHANNELS 3 Zrotation Yrotation Xrotation
        JOINT RightFoot
        {
          OFFSET 2e-06 -42.117393 -3.478398
          CHANNELS 3 Zrotation Yrotation Xrotation
          JOINT RightToeBase
          {
            OFFSET -0.0 -5.079609 13.284196
            CHANNELS 3 Zrotation Yrotation Xrotation
            JOINT RightToeEnd
            {
              OFFSET 0.009532 -1.634378 6.460591
              CHANNELS 3 Zrotation Yrotation Xrotation
            }
          }
        }
      }
    }
  }
}
MOTION
Frames: 4
Frame Time: 0.03333333333333333
0.0 0.0 0.0 0.0 -0.0 0.0 1.214098 96.947838 3.197057 2.407845 -1.565918 -2.800595 -1.881095 0.16491 -1.234337 -0.865136 0.293676 -5.108579 0.209812 -1.510808 9.577843 0.644467 2.267101 17.412735 -1.02323 -0.844542 -3.478799 1.110807 -1.805334 7.409437 7.7e-05 -2.2e-05 5e-06 0.065075 -0.162266 -0.111758 0.78863 -3.896199 -10.718724 -0.659678 3.570153 -10.643909 -6.429685 -6.899985 12.803558 -33.036285 -1.482746 20.74548 2.974138 -82.968491 -3.002352 -6.465173 5.986445 8.064487 -5.882108 9.861286 0.70259 -10.936873 -0.360575 7.156206 1e-06 8.774828 -0.0 -15.473993 19.183187 7.059508 -1.844032 2.498504 -2.507279 -10.163602 4.678947 4.621109 -20.97603 -4e-06 -0.0 -21.226295 2.451696 -3.594004 0.0 -7e-06 0.0 -1.362681 2.240798 -0.746324 -21.334921 0.58491 3.00832 -13.821218 -3e-06 0.0 -23.887178 -0.24908 -0.839486 -59.966629 2.518948 -1.08011 -0.294023 1.679689 0.833257 -14.21821 0.093215 1.300578 -34.212063 -0.287566 0.967166 -20.033218 0.964535 1.212841 -1e-06 0.0 0.0 -3.440391 0.788234 0.501655 -15.928189 -3.16731 2.999704 -6.338828 -0.0 1e-06 -18.123453 3.648183 -4.905674 -4e-06 1e-06 -2e-06 16.917847 8.911414 12.87773 37.828312 -5.474917 3.279191 0.372765 69.043564 1.751958 -6.144493 -18.078449 22.815084 2.243542 -5.255036 -3.180158 14.282896 -0.826596 6.952503 -4e-06 -12.690609 2e-06 16.145512 -17.618296 2.718038 1.665668 -1.955921 -2.878301 4.727798 -4.170589 4.993927 11.020529 3e-06 -0.0 12.109056 -3.735716 -2.866782 -0.0 0.0 1e-06 1.291986 -1.928551 -1.498089 14.800136 0.567467 3.865607 14.242577 -1.341735 -6.660659 19.631975 0.143927 -0.648247 49.492992 0.097959 -6.275497 0.35303 -1.51115 -0.031939 20.222801 3.684313 2.316629 18.787281 5e-06 -1e-06 10.751633 -0.479868 1.397904 0.0 -0.0 -1e-06 3.273807 0.305949 -0.58011 21.48682 11.830378 2.266131 8.16293 2e-06 -3e-06 18.399088 -3.798986 -4.940576 3e-06 -0.0 -1e-06 11.095952 20.048777 -4.030591 -0.089448 -0.379482 19.633957 -15.579346 16.998554 -7.227828 1.631673 -1.995085 -0.593088 0.0 1e-06 2e-06 -19.60066 -14.201881 -1.418073 0.003129 0.59841 16.907616 19.194792 -19.555729 -7.651526 -1.462178 1.062511 -0.308255 -0.0 0.0 -1e-06 
0.0 0.0 0.0 0.0 -0.0 0.0 1.146948 96.929146 3.347595 2.321932 -1.532595 -2.478626 -1.940846 0.060963 -1.326466 -0.851926 0.374097 -5.078699 0.319921 -1.769335 9.599551 0.694117 2.27041 17.302935 -1.018284 -0.649055 -3.455073 0.813319 -1.5737 7.408571 7.7e-05 -2.2e-05 5e-06 0.068046 -0.168701 -0.097135 0.791911 -3.908633 -10.673489 -0.658282 3.573392 -10.632899 -6.580775 -6.544767 12.883974 -35.274536 -0.397078 20.724873 -1.263531 -81.154045 1.544634 -5.351388 6.758509 7.575821 -5.882108 9.861287 0.702591 -10.936875 -0.360574 7.156206 1e-06 8.774828 -1e-06 -15.325345 19.106152 7.206762 -1.844032 2.498504 -2.507277 -10.163601 4.678945 4.62111 -20.976027 -5e-06 2e-06 -21.226292 2.451698 -3.593999 1e-06 -6e-06 -1e-06 -1.362682 2.240799 -0.746323 -21.334919 0.584909 3.008323 -13.821218 -3e-06 2e-06 -23.887177 -0.249079 -0.839482 -59.87598 2.7292 -0.898607 -0.294024 1.679688 0.833256 -14.21821 0.093214 1.300581 -34.212055 -0.287564 0.967172 -20.033216 0.964538 1.212844 -1e-06 0.0 -0.0 -3.44039 0.788234 0.501655 -15.928187 -3.167312 2.999707 -6.338828 -1e-06 2e-06 -18.123447 3.648184 -4.90567 -4e-06 1e-06 -2e-06 17.701635 8.549021 12.866259 38.92968 -6.690597 4.926163 0.363794 64.508156 1.902623 -7.126016 -16.252262 21.03904 2.243541 -5.255037 -3.180156 14.282892 -0.826594 6.952503 -4e-06 -12.690603 2e-06 15.916436 -17.51244 2.578645 1.665664 -1.95592 -2.878298 4.7278 -4.170588 4.993925 11.020527 2e-06 1e-06 12.109053 -3.735715 -2.866781 0.0 -0.0 1e-06 1.291985 -1.928549 -1.49809 14.800129 0.567468 3.865608 14.242574 -1.341736 -6.660659 19.631969 0.143926 -0.648244 49.220036 0.083049 -6.257292 0.353028 -1.511151 -0.031941 20.222797 3.68431 2.316631 18.787279 7e-06 -1e-06 10.751631 -0.479868 1.397906 0.0 -0.0 1e-06 3.273809 0.305948 -0.580111 21.486818 11.830377 2.266134 8.162928 1e-06 -1e-06 18.399084 -3.798985 -4.940573 3e-06 0.0 -0.0 11.108742 19.819376 -4.405063 -0.112201 -0.426057 19.813986 -15.236964 16.670799 -7.309183 1.620869 -1.933085 -0.690172 -0.0 1e-06 2e-06 -19.441225 -14.669353 -1.72668 0.040253 0.533146 17.093243 19.283087 -19.143045 -7.773683 -1.458452 1.079688 -0.313059 -0.0 0.0 -1e-06 
0.0 0.0 0.0 0.0 -0.0 0.0 1.083374 96.89856 3.496833 2.237933 -1.423417 -2.242794 -1.967807 0.007945 -1.440096 -0.855149 0.445907 -5.082747 0.419626 -1.93537 9.660484 0.640086 2.334786 17.460798 -0.972432 -0.479259 -3.412685 0.498165 -1.361948 7.288785 7.7e-05 -2.2e-05 5e-06 0.060444 -0.139182 -0.091979 0.787837 -3.878399 -10.636766 -0.67024 3.60413 -10.620674 -6.659735 -6.070011 12.953125 -37.398285 0.461023 20.277899 -3.734734 -80.369667 4.035891 -3.92207 7.518495 6.049425 -5.882109 9.861284 0.702591 -10.936872 -0.360575 7.156204 1e-06 8.774824 0.0 -15.231014 19.036173 7.223969 -1.844033 2.498503 -2.507278 -10.163603 4.678946 4.621109 -20.976027 -3e-06 1e-06 -21.226288 2.451696 -3.593999 0.0 -6e-06 -1e-06 -1.362682 2.240798 -0.746324 -21.334917 0.584911 3.008322 -13.821215 -3e-06 2e-06 -23.887175 -0.249079 -0.839484 -59.68214 2.748797 -0.810563 -0.294025 1.679687 0.833256 -14.218208 0.093216 1.30058 -34.212051 -0.287564 0.967168 -20.033215 0.964536 1.212842 -0.0 1e-06 -0.0 -3.440391 0.788235 0.501655 -15.928189 -3.167309 2.999706 -6.338829 0.0 0.0 -18.123453 3.648181 -4.905671 -4e-06 -0.0 -2e-06 18.286556 8.052643 13.014249 40.3363 -7.48021 6.314404 0.550292 60.408108 2.193717 -8.12185 -14.734492 19.006599 2.243541 -5.255033 -3.180156 14.282887 -0.826595 6.952503 -1e-06 -12.690598 -1e-06 15.70801 -17.360973 2.440469 1.665664 -1.955922 -2.878298 4.727799 -4.170585 4.993923 11.020524 2e-06 -1e-06 12.109049 -3.735716 -2.866785 0.0 0.0 1e-06 1.291984 -1.928549 -1.498089 14.800127 0.567467 3.865608 14.242569 -1.341738 -6.660655 19.631966 0.143923 -0.648244 48.963585 0.071973 -6.207673 0.353029 -1.51115 -0.031939 20.222788 3.684308 2.31663 18.78727 5e-06 2e-06 10.751626 -0.479869 1.397906 0.0 -0.0 1e-06 3.273808 0.305946 -0.580111 21.486809 11.830369 2.266134 8.162926 1e-06 0.0 18.399078 -3.798986 -4.940573 3e-06 -0.0 1e-06 11.102304 19.739983 -4.74368 -0.138183 -0.470464 20.044733 -14.924942 16.078594 -7.307918 1.62001 -1.897733 -0.646067 0.0 -0.0 2e-06 -19.310373 -14.92818 -1.941106 0.079877 0.504996 17.292349 19.287184 -18.674332 -7.96365 -1.453582 1.090259 -0.260648 0.0 0.0 -1e-06 
0.0 0.0 0.0 0.0 -0.0 0.0 1.022156 96.887955 3.646909 2.182844 -1.352546 -2.089935 -1.980491 -0.025755 -1.513876 -0.850602 0.50344 -5.109005 0.468647 -2.009602 9.740176 0.54006 2.454581 17.861567 -0.95968 -0.369107 -3.399178 0.171362 -1.206883 6.943542 7.7e-05 -2.3e-05 6e-06 0.051311 -0.110742 -0.087088 0.778833 -3.84855 -10.60793 -0.680052 3.632505 -10.611064 -6.709864 -5.554346 12.942675 -39.403572 1.354658 19.637936 -5.471291 -80.644287 5.58636 -2.296781 8.089676 3.71914 -5.882109 9.861292 0.702593 -10.936877 -0.360574 7.15621 2e-06 8.774832 0.0 -15.208367 18.905514 7.1127 -1.844032 2.498506 -2.507281 -10.163605 4.678948 4.621112 -20.97604 -6e-06 0.0 -21.226303 2.451695 -3.594004 -1e-06 -6e-06 -0.0 -1.362683 2.2408 -0.746324 -21.334929 0.58491 3.008322 -13.821223 -3e-06 0.0 -23.887188 -0.249082 -0.839485 -59.512703 2.73137 -0.783758 -0.294025 1.679688 0.833257 -14.218221 0.093215 1.300581 -34.212074 -0.287567 0.967168 -20.03323 0.964535 1.212843 0.0 0.0 -0.0 -3.440391 0.788235 0.501656 -15.928196 -3.167311 2.999708 -6.338831 -1e-06 0.0 -18.123459 3.648184 -4.905675 -4e-06 1e-06 -1e-06 18.748932 7.568912 13.268106 41.863232 -7.961552 7.780188 0.397578 56.663029 2.13638 -9.007954 -13.683567 16.669819 2.243541 -5.255039 -3.18016 14.282903 -0.826596 6.95251 -3e-06 -12.69061 2e-06 15.583463 -17.210947 2.341901 1.665668 -1.955922 -2.878301 4.727803 -4.170589 4.993927 11.020535 3e-06 1e-06 12.10906 -3.735717 -2.866784 0.0 -0.0 2e-06 1.291987 -1.92855 -1.498091 14.80014 0.567469 3.865612 14.242584 -1.341735 -6.660661 19.631985 0.143926 -0.648243 48.822876 0.027753 -6.180423 0.353029 -1.511152 -0.031939 20.222805 3.684311 2.316634 18.787289 3e-06 1e-06 10.751637 -0.47987 1.397908 0.0 0.0 -2e-06 3.273807 0.305948 -0.58011 21.486832 11.83038 2.266135 8.162934 1e-06 1e-06 18.399099 -3.798988 -4.940577 3e-06 -1e-06 -1e-06 11.173396 19.704048 -4.846651 -0.160857 -0.513978 20.078199 -14.803228 15.386374 -7.342367 1.62176 -1.872142 -0.550296 -0.0 0.0 2e-06 -19.195934 -14.952194 -2.017654 0.099284 0.500497 17.338379 19.233965 -18.25172 -8.199157 -1.448892 1.100664 -0.113234 0.0 0.0 -1e-06 
